<?xml version="1.0" encoding="UTF-8"?>
<svg width="146px" height="66px" viewBox="0 0 146 66" version="1.1" xmlns="http://www.w3.org/2000/svg" xmlns:xlink="http://www.w3.org/1999/xlink">
    <!-- Generator: Sketch 52.3 (67297) - http://www.bohemiancoding.com/sketch -->
    <title>Icon06</title>
    <desc>Created with Sketch.</desc>
    <defs>
        <linearGradient x1="50%" y1="0%" x2="50%" y2="100%" id="linearGradient-1">
            <stop stop-color="#B4361E" offset="0%"></stop>
            <stop stop-color="#B4361E" offset="100%"></stop>
        </linearGradient>
        <filter x="-52.2%" y="-50.0%" width="204.3%" height="200.0%" filterUnits="objectBoundingBox" id="filter-2">
            <feOffset dx="0" dy="2" in="SourceAlpha" result="shadowOffsetOuter1"></feOffset>
            <feGaussianBlur stdDeviation="2" in="shadowOffsetOuter1" result="shadowBlurOuter1"></feGaussianBlur>
            <feColorMatrix values="0 0 0 0 1   0 0 0 0 0.649404198   0 0 0 0 0.720738059  0 0 0 1 0" type="matrix" in="shadowBlurOuter1" result="shadowMatrixOuter1"></feColorMatrix>
            <feMerge>
                <feMergeNode in="shadowMatrixOuter1"></feMergeNode>
                <feMergeNode in="SourceGraphic"></feMergeNode>
            </feMerge>
        </filter>
    </defs>
    <g id="Icon06" stroke="none" stroke-width="1" fill="none" fill-rule="evenodd">
        <g id="tour" transform="translate(0.000000, 21.000000)">
            <g id="Group-6">
                <text id="TOUR" fill="url(#linearGradient-1)" font-family="OpenSans-Regular, Open Sans" font-size="14.8" font-weight="normal">
                    <tspan x="46" y="18">TOUR </tspan>
                </text>
                <g id="TELESKOP" filter="url(#filter-2)" fill="#FFFFFE">
                    <path d="M9.60971186,16.7862857 C9.22338983,16.7862857 8.85149153,16.576381 8.67022034,16.2140952 L5.14459322,9.16533333 C5.02257627,8.92190476 5.0050339,8.6407619 5.09469492,8.3847619 C5.18513559,8.1287619 5.37576271,7.91809524 5.62486441,7.79885714 L16.353,2.67542857 C16.8718644,2.42819048 17.4971525,2.63695238 17.7501525,3.1447619 L21.2753898,10.1935238 C21.5283898,10.7001905 21.3139831,11.311619 20.7951186,11.5592381 L10.0677627,16.6826667 C9.92001695,16.7531429 9.76369492,16.7862857 9.60971186,16.7862857 L9.60971186,16.7862857 Z M7.48123729,9.18590476 L10.0888136,14.399619 L18.9391356,10.1721905 L16.3311695,4.95847619 L7.48123729,9.18590476 L7.48123729,9.18590476 Z" id="Fill-1"></path>
                    <path d="M3.00754237,17.8506667 C2.89332203,17.8506667 2.77832203,17.832 2.668,17.7954286 C2.40642373,17.7070476 2.19045763,17.5207619 2.06883051,17.2777143 L0.23,13.6 C-0.023,13.0933333 0.19140678,12.4819048 0.710271186,12.2346667 L6.3070678,9.56152381 C6.82554237,9.31390476 7.452,9.52342857 7.70422034,10.0300952 L9.54383051,13.7078095 C9.66545763,13.9508571 9.68338983,14.232381 9.59333898,14.488 C9.50289831,14.744 9.31266102,14.9546667 9.06355932,15.0739048 L3.46598305,17.7470476 C3.32213559,17.816 3.16542373,17.8506667 3.00754237,17.8506667 L3.00754237,17.8506667 Z M2.56625424,13.6213333 L3.48781356,15.464 L7.20718644,13.6872381 L6.28601695,11.8441905 L2.56625424,13.6213333 L2.56625424,13.6213333 Z" id="Fill-2"></path>
                    <path d="M21.9536949,14.1177143 C21.5673729,14.1177143 21.1950847,13.9078095 21.0142034,13.5447619 L15.0365424,1.59238095 C14.7835424,1.08571429 14.9975593,0.474285714 15.5168136,0.227047619 C16.0352881,-0.0201904762 16.6609661,0.188952381 16.9139661,0.696380952 L22.8916271,12.6487619 C23.1450169,13.1550476 22.9306102,13.7668571 22.4113559,14.0140952 C22.264,14.0845714 22.1072881,14.1177143 21.9536949,14.1177143" id="Fill-3"></path>
                    <path d="M8.32950847,23.928381 C8.17123729,23.928381 8.00984746,23.8929524 7.85859322,23.8186667 C7.34362712,23.5638095 7.13701695,22.9504762 7.39742373,22.4464762 L11.6910169,14.1417143 C11.9506441,13.6384762 12.5813898,13.4377143 13.0947966,13.6910476 C13.6097627,13.9455238 13.8159831,14.5592381 13.5563559,15.0632381 L9.26276271,23.368 C9.07915254,23.7234286 8.71115254,23.928381 8.32950847,23.928381" id="Fill-4"></path>
                    <path d="M16.2882881,23.128381 C15.8201017,23.128381 15.3936271,22.8194286 15.2751186,22.3554286 L13.1805593,14.168381 C13.0406102,13.6213333 13.3805424,13.0666667 13.9407288,12.9299048 C14.5005254,12.7942857 15.0685085,13.1253333 15.2080678,13.672381 L17.3026271,21.8594286 C17.4425763,22.4064762 17.1026441,22.9607619 16.5424576,23.0979048 C16.4574746,23.1184762 16.3717119,23.128381 16.2882881,23.128381" id="Fill-5"></path>
                </g>
            </g>
        </g>
    </g>
</svg>