<?xml version="1.0" encoding="UTF-8"?>
<svg width="146px" height="66px" viewBox="0 0 146 66" version="1.1" xmlns="http://www.w3.org/2000/svg" xmlns:xlink="http://www.w3.org/1999/xlink">
    <!-- Generator: Sketch 52.3 (67297) - http://www.bohemiancoding.com/sketch -->
    <title>Icon07</title>
    <desc>Created with Sketch.</desc>
    <defs>
        <filter x="-50.0%" y="-50.0%" width="200.0%" height="200.0%" filterUnits="objectBoundingBox" id="filter-1">
            <feOffset dx="0" dy="2" in="SourceAlpha" result="shadowOffsetOuter1"></feOffset>
            <feGaussianBlur stdDeviation="2" in="shadowOffsetOuter1" result="shadowBlurOuter1"></feGaussianBlur>
            <feColorMatrix values="0 0 0 0 0.816203773   0 0 0 0 0.00751322834   0 0 0 0 0.106696017  0 0 0 1 0" type="matrix" in="shadowBlurOuter1" result="shadowMatrixOuter1"></feColorMatrix>
            <feMerge>
                <feMergeNode in="shadowMatrixOuter1"></feMergeNode>
                <feMergeNode in="SourceGraphic"></feMergeNode>
            </feMerge>
        </filter>
        <linearGradient x1="50%" y1="0%" x2="50%" y2="100%" id="linearGradient-2">
            <stop stop-color="#CD3123" offset="0%"></stop>
            <stop stop-color="#9B3365" offset="100%"></stop>
        </linearGradient>
    </defs>
    <g id="Icon07" stroke="none" stroke-width="1" fill="none" fill-rule="evenodd">
        <g id="music-icon" transform="translate(0.000000, 21.000000)">
            <g id="Group-6">
                <g id="SYSTEM" filter="url(#filter-1)" fill="#FFFFFE">
                    <path d="M5.08342857,6.97028571 C3.54628571,6.97028571 2.29561905,5.71961905 2.29561905,4.18285714 C2.29561905,2.64533333 3.54628571,1.39466667 5.08342857,1.39466667 C6.62057143,1.39466667 7.8712381,2.64533333 7.8712381,4.18285714 C7.8712381,5.71961905 6.62057143,6.97028571 5.08342857,6.97028571 L5.08342857,6.97028571 Z M5.08342857,2.77942857 C4.31009524,2.77942857 3.68038095,3.40914286 3.68038095,4.18285714 C3.68038095,4.95619048 4.31009524,5.58552381 5.08342857,5.58552381 C5.85714286,5.58552381 6.48647619,4.95619048 6.48647619,4.18285714 C6.48647619,3.40914286 5.85714286,2.77942857 5.08342857,2.77942857 L5.08342857,2.77942857 Z" id="Fill-1"></path>
                    <path d="M18.1249524,13.6007619 C17.0834286,13.6007619 16.2361905,12.7531429 16.2361905,11.712 C16.2361905,10.6704762 17.0834286,9.82361905 18.1249524,9.82361905 C19.1660952,9.82361905 20.0133333,10.6704762 20.0133333,11.712 C20.0133333,12.7531429 19.1660952,13.6007619 18.1249524,13.6007619 L18.1249524,13.6007619 Z M18.1249524,11.208381 C17.8468571,11.208381 17.6209524,11.4342857 17.6209524,11.712 C17.6209524,11.9897143 17.8468571,12.215619 18.1249524,12.215619 C18.4026667,12.215619 18.6281905,11.9897143 18.6281905,11.712 C18.6281905,11.4342857 18.4026667,11.208381 18.1249524,11.208381 L18.1249524,11.208381 Z" id="Fill-2"></path>
                    <path d="M12.127619,18.3638095 C8.41257143,18.3638095 5.39009524,15.3413333 5.39009524,11.6262857 C5.39009524,7.9112381 8.41257143,4.88914286 12.127619,4.88914286 C15.2952381,4.88914286 17.9969524,7.04342857 18.6975238,10.128381 L17.3470476,10.4354286 C16.7908571,7.98514286 14.6445714,6.27390476 12.127619,6.27390476 C9.17638095,6.27390476 6.7752381,8.67504762 6.7752381,11.6262857 C6.7752381,14.5779048 9.17638095,16.9790476 12.127619,16.9790476 C14.6792381,16.9790476 16.887619,15.1649524 17.3790476,12.6662857 L18.7382857,12.9333333 C18.1192381,16.08 15.3394286,18.3638095 12.127619,18.3638095" id="Fill-3"></path>
                    <path d="M13.976,11.9260952 C13.976,12.9470476 13.1485714,13.7744762 12.127619,13.7744762 C11.1066667,13.7744762 10.2788571,12.9470476 10.2788571,11.9260952 C10.2788571,10.9051429 11.1066667,10.0777143 12.127619,10.0777143 C13.1485714,10.0777143 13.976,10.9051429 13.976,11.9260952" id="Fill-4"></path>
                    <path d="M12.127619,23.791619 C5.5847619,23.791619 0.262095238,18.4685714 0.262095238,11.9260952 C0.262095238,9.27733333 1.11619048,6.77142857 2.73219048,4.6792381 L4.376,5.94895238 C3.04380952,7.67390476 2.33942857,9.74095238 2.33942857,11.9260952 C2.33942857,17.3230476 6.73028571,21.7142857 12.127619,21.7142857 C17.5245714,21.7142857 21.9154286,17.3230476 21.9154286,11.9260952 C21.9154286,6.5287619 17.5245714,2.13828571 12.127619,2.13828571 C10.336,2.13828571 8.58438095,2.62590476 7.06171429,3.54895238 L5.98438095,1.77257143 C7.832,0.652952381 9.95619048,0.060952381 12.127619,0.060952381 C18.6700952,0.060952381 23.9927619,5.38361905 23.9927619,11.9260952 C23.9927619,18.4685714 18.6700952,23.791619 12.127619,23.791619" id="Fill-5"></path>
                </g>
                <text id="MUSIC" fill="url(#linearGradient-2)" font-family="OpenSans-Regular, Open Sans" font-size="14.8" font-weight="normal">
                    <tspan x="46" y="18">MUSIC</tspan>
                </text>
            </g>
        </g>
    </g>
</svg>