<?xml version="1.0" encoding="UTF-8"?>
<svg width="146px" height="66px" viewBox="0 0 146 66" version="1.1" xmlns="http://www.w3.org/2000/svg" xmlns:xlink="http://www.w3.org/1999/xlink">
    <!-- Generator: Sketch 52.3 (67297) - http://www.bohemiancoding.com/sketch -->
    <title>Icon02</title>
    <desc>Created with Sketch.</desc>
    <defs>
        <linearGradient x1="50%" y1="0%" x2="50%" y2="100%" id="linearGradient-1">
            <stop stop-color="#236FAF" offset="0%"></stop>
            <stop stop-color="#2C87AC" offset="100%"></stop>
        </linearGradient>
        <filter x="-57.1%" y="-46.2%" width="214.3%" height="192.3%" filterUnits="objectBoundingBox" id="filter-2">
            <feOffset dx="0" dy="2" in="SourceAlpha" result="shadowOffsetOuter1"></feOffset>
            <feGaussianBlur stdDeviation="2" in="shadowOffsetOuter1" result="shadowBlurOuter1"></feGaussianBlur>
            <feColorMatrix values="0 0 0 0 0   0 0 0 0 0.0657269022   0 0 0 0 1  0 0 0 1 0" type="matrix" in="shadowBlurOuter1" result="shadowMatrixOuter1"></feColorMatrix>
            <feMerge>
                <feMergeNode in="shadowMatrixOuter1"></feMergeNode>
                <feMergeNode in="SourceGraphic"></feMergeNode>
            </feMerge>
        </filter>
    </defs>
    <g id="Icon02" stroke="none" stroke-width="1" fill="none" fill-rule="evenodd">
        <g id="about-us" transform="translate(0.000000, 20.000000)">
            <g id="Group-6">
                <text id="ABOUT-US" fill="url(#linearGradient-1)" font-family="OpenSans-Regular, Open Sans" font-size="14.8" font-weight="normal">
                    <tspan x="46" y="19">ABOUT US</tspan>
                </text>
                <g id="icon-about-us" fill="#FFFFFE">
                    <g id="COSMONOT-2">
                        <g id="COSMONOT" filter="url(#filter-2)">
                            <path d="M20.7301698,1.67228986 C20.7301698,2.52162319 20.0062642,3.21005797 19.1131698,3.21005797 C18.2200755,3.21005797 17.4961698,2.52162319 17.4961698,1.67228986 C17.4961698,0.822956522 18.2200755,0.134521739 19.1131698,0.134521739 C20.0062642,0.134521739 20.7301698,0.822956522 20.7301698,1.67228986" id="Fill-1"></path>
                            <path d="M10.5055472,21.8373623 C5.01186792,21.8373623 0.542830189,17.5869275 0.542830189,12.3624348 C0.542830189,7.13831884 5.01186792,2.88826087 10.5055472,2.88826087 C15.9992264,2.88826087 20.4678679,7.13831884 20.4678679,12.3624348 C20.4678679,17.5869275 15.9992264,21.8373623 10.5055472,21.8373623 L10.5055472,21.8373623 Z M10.5055472,4.94301449 C6.20332075,4.94301449 2.70345283,8.2713913 2.70345283,12.3624348 C2.70345283,16.4538551 6.20332075,19.7826087 10.5055472,19.7826087 C14.8077736,19.7826087 18.3076415,16.4538551 18.3076415,12.3624348 C18.3076415,8.2713913 14.8077736,4.94301449 10.5055472,4.94301449 L10.5055472,4.94301449 Z" id="Fill-2"></path>
                            <path d="M10.3256604,25.5482029 C4.36641509,25.5482029 0.362943396,21.6255942 0.362943396,15.7868986 C0.362943396,15.2194203 0.846735849,14.7597101 1.4430566,14.7597101 C2.03977358,14.7597101 2.52356604,15.2194203 2.52356604,15.7868986 C2.52356604,21.4692174 6.55358491,23.4934493 10.3256604,23.4934493 C11.0139057,23.4934493 11.6843208,23.4282609 12.3174906,23.2993913 C12.897566,23.1833333 13.4748679,23.5341449 13.599283,24.0891884 C13.7240943,24.6442319 13.352434,25.1898551 12.7687925,25.3085507 C11.987434,25.4675652 11.1652642,25.5482029 10.3256604,25.5482029" id="Fill-3"></path>
                            <path d="M16.7163962,23.2383478 C16.439434,23.2383478 16.1624717,23.1373623 15.951283,22.9361449 C15.5300943,22.5344638 15.5316792,21.8837101 15.9536604,21.4835362 C17.375717,20.1349275 18.1273585,18.1653333 18.1273585,15.7868986 C18.1273585,15.2194203 18.6111509,14.7597101 19.2078679,14.7597101 C19.8041887,14.7597101 20.2879811,15.2194203 20.2879811,15.7868986 C20.2879811,18.7233913 19.3168302,21.196029 17.4795283,22.938029 C17.2687358,23.1381159 16.9921698,23.2383478 16.7163962,23.2383478" id="Fill-4"></path>
                            <polygon id="Fill-5" points="18.3983774 3.22437681 19.8386604 3.22437681 19.8386604 8.97527536 18.3983774 8.97527536"></polygon>
                            <path d="M14.7162453,25.6405217 C13.8960566,25.6405217 13.1499623,25.2433623 12.7216415,24.5790435 C12.3955472,24.0729855 12.2953019,23.4761159 12.4419057,22.8992174 C12.5873208,22.3215652 12.9601698,21.8328406 13.4926981,21.5227246 C13.8603962,21.307942 14.2823774,21.1945217 14.7126792,21.1945217 C15.5336604,21.1945217 16.2789623,21.5909275 16.7068868,22.2556232 C17.0329811,22.7616812 17.1328302,23.3581739 16.9874151,23.9354493 C16.8416038,24.5131014 16.4683585,25.0018261 15.9358302,25.3123188 C15.5681321,25.5267246 15.1461509,25.6405217 14.7162453,25.6405217 L14.7162453,25.6405217 Z M14.7126792,22.5642319 C14.5482453,22.5642319 14.3865849,22.607942 14.2451321,22.6904638 C14.0410755,22.8095362 13.8976415,22.9971884 13.8421698,23.2183768 C13.7866981,23.439942 13.8243396,23.6690435 13.9495472,23.8627246 C14.199566,24.250087 14.7689434,24.3846087 15.1833962,24.1445797 C15.3874528,24.0255072 15.5308868,23.8378551 15.5863585,23.6162899 C15.6426226,23.3947246 15.6037925,23.166 15.4785849,22.9715652 C15.3141509,22.7164638 15.0284717,22.5642319 14.7126792,22.5642319 L14.7126792,22.5642319 Z" id="Fill-6"></path>
                            <path d="M16.5773208,12.7023188 C16.1791132,12.7023188 15.8569811,12.3955942 15.8569811,12.0172754 C15.8569811,9.29330435 13.5263774,7.07652174 10.6616604,7.07652174 C10.2634528,7.07652174 9.94132075,6.7697971 9.94132075,6.39147826 C9.94132075,6.01353623 10.2634528,5.70681159 10.6616604,5.70681159 C14.3204151,5.70681159 17.2976604,8.5377971 17.2976604,12.0172754 C17.2976604,12.3955942 16.9755283,12.7023188 16.5773208,12.7023188" id="Fill-7"></path>
                            <polygon id="Fill-8" points="1.62333962 13.7325217 19.3877547 13.7325217 19.3877547 15.1022319 1.62333962 15.1022319"></polygon>
                        </g>
                    </g>
                </g>
            </g>
        </g>
    </g>
</svg>