<?xml version="1.0" encoding="UTF-8"?>
<svg width="146px" height="66px" viewBox="0 0 146 66" version="1.1" xmlns="http://www.w3.org/2000/svg" xmlns:xlink="http://www.w3.org/1999/xlink">
    <!-- Generator: Sketch 52.3 (67297) - http://www.bohemiancoding.com/sketch -->
    <title>Icon01</title>
    <desc>Created with Sketch.</desc>
    <defs>
        <linearGradient x1="50%" y1="0%" x2="50%" y2="100%" id="linearGradient-1">
            <stop stop-color="#464081" offset="0%"></stop>
            <stop stop-color="#455495" offset="100%"></stop>
        </linearGradient>
        <filter x="-50.0%" y="-37.5%" width="200.0%" height="175.0%" filterUnits="objectBoundingBox" id="filter-2">
            <feOffset dx="0" dy="2" in="SourceAlpha" result="shadowOffsetOuter1"></feOffset>
            <feGaussianBlur stdDeviation="2" in="shadowOffsetOuter1" result="shadowBlurOuter1"></feGaussianBlur>
            <feColorMatrix values="0 0 0 0 0.846372783   0 0 0 0 0.314148009   0 0 0 0 0.852171004  0 0 0 1 0" type="matrix" in="shadowBlurOuter1" result="shadowMatrixOuter1"></feColorMatrix>
            <feMerge>
                <feMergeNode in="shadowMatrixOuter1"></feMergeNode>
                <feMergeNode in="SourceGraphic"></feMergeNode>
            </feMerge>
        </filter>
    </defs>
    <g id="Icon01" stroke="none" stroke-width="1" fill="none" fill-rule="evenodd">
        <g id="HOME" transform="translate(0.000000, 17.000000)">
            <text fill="url(#linearGradient-1)" font-family="OpenSans-Regular, Open Sans" font-size="14.8" font-weight="normal">
                <tspan x="46" y="22">HOME</tspan>
            </text>
            <g id="SATURN-2" stroke-width="1" fill="#FFFFFE">
                <g id="SATURN" filter="url(#filter-2)">
                    <path d="M12.132,4.77493976 C10.8727742,4.77493976 9.84851613,3.75479518 9.84851613,2.50062651 C9.84851613,1.24645783 10.8727742,0.226313253 12.132,0.226313253 C13.3912258,0.226313253 14.4150968,1.24645783 14.4150968,2.50062651 C14.4150968,3.75479518 13.3912258,4.77493976 12.132,4.77493976 L12.132,4.77493976 Z M12.132,1.62814458 C11.6489032,1.62814458 11.256,2.01946988 11.256,2.50062651 C11.256,2.98216867 11.6489032,3.37349398 12.132,3.37349398 C12.6150968,3.37349398 13.008,2.98216867 13.008,2.50062651 C13.008,2.01946988 12.6150968,1.62814458 12.132,1.62814458 L12.132,1.62814458 Z" id="Fill-1"></path>
                    <path d="M11.4282581,28.3126747 C6.06116129,28.3126747 1.69509677,23.9641446 1.69509677,18.6186024 C1.69509677,13.2734458 6.06116129,8.92453012 11.4282581,8.92453012 C16.7949677,8.92453012 21.1614194,13.2734458 21.1614194,18.6186024 C21.1614194,23.9641446 16.7949677,28.3126747 11.4282581,28.3126747 L11.4282581,28.3126747 Z M11.4282581,11.0268916 C7.22516129,11.0268916 3.80593548,14.4327711 3.80593548,18.6186024 C3.80593548,22.8048193 7.22516129,26.2103133 11.4282581,26.2103133 C15.6309677,26.2103133 19.0505806,22.8048193 19.0505806,18.6186024 C19.0505806,14.4327711 15.6309677,11.0268916 11.4282581,11.0268916 L11.4282581,11.0268916 Z" id="Fill-2"></path>
                    <path d="M23.1569032,7.11286747 C21.7579355,5.82438554 18.4463226,6.944 14.6132903,9.67787952 C15.128129,9.80433735 15.5624516,10.0352771 15.9170323,10.340241 C18.4354839,8.64501205 20.4809032,7.96607229 21.3371613,8.75450602 C22.8727742,10.1690602 20.2312258,15.8496386 15.1660645,21.3050602 C10.1009032,26.7600964 4.52980645,29.924241 2.99419355,28.5096867 C2.21767742,27.794506 2.58154839,26.0079036 3.77187097,23.7189398 C3.30193548,23.3904578 2.94812903,22.9478554 2.7123871,22.4447229 C0.201290323,26.533012 -0.705677419,29.9813012 0.711483871,31.2863614 C2.88580645,33.2888675 9.67277419,29.5009157 15.8709677,22.8256386 C22.0691613,16.1499759 25.3312258,9.11537349 23.1569032,7.11286747" id="Fill-3"></path>
                </g>
            </g>
        </g>
    </g>
</svg>