<?xml version="1.0" encoding="UTF-8"?>
<svg width="146px" height="66px" viewBox="0 0 146 66" version="1.1" xmlns="http://www.w3.org/2000/svg" xmlns:xlink="http://www.w3.org/1999/xlink">
    <!-- Generator: Sketch 52.3 (67297) - http://www.bohemiancoding.com/sketch -->
    <title>Icon03</title>
    <desc>Created with Sketch.</desc>
    <defs>
        <linearGradient x1="28.2130821%" y1="50%" x2="41.5019914%" y2="203.671875%" id="linearGradient-1">
            <stop stop-color="#3CB688" offset="0%"></stop>
            <stop stop-color="#44AC44" offset="100%"></stop>
        </linearGradient>
        <filter x="-60.0%" y="-46.2%" width="220.0%" height="192.3%" filterUnits="objectBoundingBox" id="filter-2">
            <feOffset dx="0" dy="2" in="SourceAlpha" result="shadowOffsetOuter1"></feOffset>
            <feGaussianBlur stdDeviation="2" in="shadowOffsetOuter1" result="shadowBlurOuter1"></feGaussianBlur>
            <feColorMatrix values="0 0 0 0 0.0327418604   0 0 0 0 0.885602679   0 0 0 0 0.309689871  0 0 0 1 0" type="matrix" in="shadowBlurOuter1" result="shadowMatrixOuter1"></feColorMatrix>
            <feMerge>
                <feMergeNode in="shadowMatrixOuter1"></feMergeNode>
                <feMergeNode in="SourceGraphic"></feMergeNode>
            </feMerge>
        </filter>
    </defs>
    <g id="Icon03" stroke="none" stroke-width="1" fill="none" fill-rule="evenodd">
        <g id="discography" transform="translate(0.000000, 20.000000)">
            <g id="Group-6" transform="translate(3.000000, 0.000000)">
                <text id="DISCOGRAPHY" fill="url(#linearGradient-1)" font-family="OpenSans-Regular, Open Sans" font-size="14.8" font-weight="normal">
                    <tspan x="34" y="19">DISCOGRAPHY</tspan>
                </text>
                <g id="HALF-MON" filter="url(#filter-2)" fill="#FFFFFE">
                    <path d="M17.4604082,25.7982254 C16.1330612,25.7982254 15.0526531,24.8292676 15.0526531,23.6380282 C15.0526531,22.4471549 16.1330612,21.4781972 17.4604082,21.4781972 C18.7877551,21.4781972 19.8677551,22.4471549 19.8677551,23.6380282 C19.8677551,24.8292676 18.7877551,25.7982254 17.4604082,25.7982254 L17.4604082,25.7982254 Z M17.4604082,22.8093239 C16.9510204,22.8093239 16.5367347,23.1813803 16.5367347,23.6380282 C16.5367347,24.0950423 16.9510204,24.4670986 17.4604082,24.4670986 C17.9697959,24.4670986 18.3840816,24.0950423 18.3840816,23.6380282 C18.3840816,23.1813803 17.9697959,22.8093239 17.4604082,22.8093239 L17.4604082,22.8093239 Z" id="Fill-1"></path>
                    <path d="M8.70326531,2.21988732 C8.02857143,2.21988732 7.47959184,1.72698592 7.47959184,1.12129577 C7.47959184,0.515605634 8.02857143,0.0230704225 8.70326531,0.0230704225 C9.37836735,0.0230704225 9.9277551,0.515605634 9.9277551,1.12129577 C9.9277551,1.72698592 9.37836735,2.21988732 8.70326531,2.21988732 L8.70326531,2.21988732 Z M8.70326531,0.688816901 C8.43714286,0.688816901 8.22122449,0.882535211 8.22122449,1.12129577 C8.22122449,1.35969014 8.43714286,1.55414085 8.70326531,1.55414085 C8.96897959,1.55414085 9.18571429,1.35969014 9.18571429,1.12129577 C9.18571429,0.882535211 8.96897959,0.688816901 8.70326531,0.688816901 L8.70326531,0.688816901 Z" id="Fill-2"></path>
                    <path d="M10.6693878,22.5603099 C5.01061224,22.5603099 0.406938776,18.4299718 0.406938776,13.3526479 C0.406938776,8.27532394 5.01061224,4.14461972 10.6693878,4.14461972 C11.9620408,4.14461972 13.2342857,4.36433803 14.4514286,4.79791549 C14.8526531,4.94109859 15.1261224,5.27983099 15.1514286,5.66653521 C15.177551,6.05360563 14.9506122,6.41907042 14.5710204,6.604 C11.9722449,7.86774648 10.3571429,10.2989296 10.3571429,12.9476338 C10.3571429,15.9185915 12.3502041,18.5482535 15.4346939,19.6464789 C15.8359184,19.7892958 16.1089796,20.1280282 16.1346939,20.5147324 C16.1604082,20.9018028 15.9338776,21.2672676 15.5542857,21.4521972 C14.0636735,22.1772676 12.3742857,22.5603099 10.6693878,22.5603099 L10.6693878,22.5603099 Z M10.6693878,6.14149296 C6.23755102,6.14149296 2.63265306,9.37647887 2.63265306,13.3526479 C2.63265306,17.3288169 6.23755102,20.5638028 10.6693878,20.5638028 C11.2420408,20.5638028 11.8122449,20.5088732 12.3685714,20.4008451 C9.7355102,18.6991268 8.13142857,15.9610704 8.13142857,12.9476338 C8.13142857,10.3395775 9.35755102,7.89667606 11.4395918,6.1751831 C11.1844898,6.15284507 10.9273469,6.14149296 10.6693878,6.14149296 L10.6693878,6.14149296 Z" id="Fill-3"></path>
                    <path d="M16.0126531,12.0145634 C16.0126531,12.5045352 15.5697959,12.9018592 15.0236735,12.9018592 C14.4771429,12.9018592 14.0342857,12.5045352 14.0342857,12.0145634 C14.0342857,11.5242254 14.4771429,11.1269014 15.0236735,11.1269014 C15.5697959,11.1269014 16.0126531,11.5242254 16.0126531,12.0145634" id="Fill-4"></path>
                </g>
            </g>
        </g>
    </g>
</svg>