<?xml version="1.0" encoding="UTF-8"?>
<svg width="191px" height="153px" viewBox="0 0 191 153" version="1.1" xmlns="http://www.w3.org/2000/svg" xmlns:xlink="http://www.w3.org/1999/xlink">
    <!-- Generator: Sketch 52.2 (67145) - http://www.bohemiancoding.com/sketch -->
    <title>planet03</title>
    <desc>Created with Sketch.</desc>
    <defs>
        <filter x="-11.4%" y="-11.5%" width="122.9%" height="123.1%" filterUnits="objectBoundingBox" id="filter-1">
            <feOffset dx="0" dy="2" in="SourceAlpha" result="shadowOffsetOuter1"></feOffset>
            <feGaussianBlur stdDeviation="2" in="shadowOffsetOuter1" result="shadowBlurOuter1"></feGaussianBlur>
            <feColorMatrix values="0 0 0 0 1   0 0 0 0 0.421105587   0 0 0 0 0.421105587  0 0 0 0.5 0" type="matrix" in="shadowBlurOuter1" result="shadowMatrixOuter1"></feColorMatrix>
            <feMerge>
                <feMergeNode in="shadowMatrixOuter1"></feMergeNode>
                <feMergeNode in="SourceGraphic"></feMergeNode>
            </feMerge>
        </filter>
    </defs>
    <g id="planet03" stroke="none" stroke-width="1" fill="none" fill-rule="evenodd">
        <g id="SAT" filter="url(#filter-1)" transform="translate(43.000000, 25.000000)" fill="#FFFFFE">
            <path d="M26.4625926,12.8804 C23.8051852,12.8804 21.4316667,11.1865 20.5618519,8.6658 C20.0174074,7.085 20.1185185,5.3859 20.8483333,3.8818 C21.5768519,2.3777 22.8472222,1.2493 24.4209259,0.702 C27.6175926,-0.403 31.2666667,1.3949 32.3646296,4.5734 C33.4872222,7.839 31.7540741,11.4101 28.5003704,12.5359 C27.8431481,12.7647 27.1574074,12.8804 26.4625926,12.8804 L26.4625926,12.8804 Z M26.4625926,5.083 C26.2940741,5.083 26.1255556,5.1116 25.9635185,5.1688 C25.5759259,5.3027 25.2661111,5.5783 25.0859259,5.9475 C24.9096296,6.3167 24.8837037,6.7327 25.0172222,7.1188 C25.2868519,7.8975 26.1657407,8.3473 26.9616667,8.0704 C27.7601852,7.7935 28.1853704,6.9173 27.9092593,6.1165 C27.6953704,5.499 27.1159259,5.083 26.4625926,5.083 L26.4625926,5.083 Z" id="Fill-1"></path>
            <polyline id="Fill-2" points="30.2775926 24.8807 25.5305556 11.1059 29.9846296 9.5615 34.7316667 23.3363 30.2775926 24.8807"></polyline>
            <polyline id="Fill-3" points="22.9548148 92.6263 14.3422222 78.5395 18.3607407 76.0682 26.9733333 90.155 22.9548148 92.6263"></polyline>
            <polyline id="Fill-4" points="85.9496296 52.598 77.337037 38.5112 81.3542593 36.0399 89.9668519 50.1267 85.9496296 52.598"></polyline>
            <path d="M63.9592593,94.6179 C60.4475926,94.6179 57.2587037,92.8291 55.4244444,89.83 L32.2375926,51.9064 C29.3546296,47.1913 30.8337037,41.0033 35.5353704,38.1121 L36.7227778,37.3828 C38.2938889,36.4156 40.0996296,35.9034 41.9403704,35.9034 C45.452037,35.9034 48.6409259,37.6948 50.4751852,40.6926 L73.6594444,78.6149 C75.0594444,80.899 75.4846296,83.5926 74.8611111,86.1978 C74.2375926,88.803 72.6405556,91.0091 70.362963,92.4105 L69.182037,93.1372 C67.6057407,94.1057 65.8,94.6179 63.9592593,94.6179 L63.9592593,94.6179 Z M41.9403704,42.9923 C41.405,42.9923 40.8774074,43.1431 40.4159259,43.4278 L39.2285185,44.1571 C37.8518519,45.0034 37.4175926,46.8182 38.2640741,48.2014 L61.4483333,86.1237 C62.2637037,87.4601 64.1290741,87.9281 65.485,87.0948 L66.6646296,86.3681 C67.3374074,85.956 67.8040741,85.3086 67.9881481,84.5442 C68.1696296,83.7811 68.0451852,82.992 67.6355556,82.3225 L44.4487037,44.3976 C43.9107407,43.5175 42.9735185,42.9923 41.9403704,42.9923 L41.9403704,42.9923 Z" id="Fill-5"></path>
            <polyline id="Fill-6" points="59.7890741 63.9158 56.0946296 57.8734 71.7940741 48.2196 75.4898148 54.262 59.7890741 63.9158"></polyline>
            <polyline id="Fill-7" points="32.222037 80.8691 28.5262963 74.8254 44.2257407 65.1703 47.9214815 71.214 32.222037 80.8691"></polyline>
            <path d="M77.7311111,63.9379 C76.5437037,63.9379 75.3809259,63.3373 74.7159259,62.2466 L64.4311111,45.4259 C63.9411111,44.6238 63.7868519,43.6605 64.0046296,42.7466 C64.2237037,41.8314 64.7966667,41.0423 65.5951852,40.5509 L88.2738889,26.6071 C89.075,26.1131 90.0368519,25.961 90.9455556,26.182 C91.8568519,26.4017 92.645,26.975 93.1337037,27.7758 L103.415926,44.5965 C104.438704,46.2657 103.916296,48.4471 102.251852,49.4715 L79.5757407,63.4153 C78.9988889,63.7702 78.3611111,63.9379 77.7311111,63.9379 L77.7311111,63.9379 Z M72.3022222,44.7421 L78.8925926,55.5191 L95.5448148,45.2803 L88.9544444,34.5033 L72.3022222,44.7421 L72.3022222,44.7421 Z" id="Fill-8"></path>
            <path d="M14.2294444,102.9847 C13.9533333,102.9847 13.6785185,102.9522 13.4062963,102.8859 C12.495,102.6675 11.7055556,102.0942 11.2181481,101.2934 L0.932037037,84.4714 C0.442037037,83.6693 0.287777778,82.706 0.506851852,81.7921 C0.725925926,80.8769 1.29888889,80.0878 2.09740741,79.5964 L24.7735185,65.6526 C26.4366667,64.6308 28.6131481,65.1508 29.6333333,66.8213 L39.9181481,83.642 C40.4081481,84.4441 40.5624074,85.4074 40.3446296,86.3213 C40.1255556,87.2365 39.5525926,88.0256 38.7540741,88.517 L16.077963,102.4621 C15.5166667,102.8066 14.8762963,102.9847 14.2294444,102.9847 L14.2294444,102.9847 Z M8.80444444,83.7863 L15.3961111,94.5659 L32.047037,84.3271 L25.4540741,73.5488 L8.80444444,83.7863 L8.80444444,83.7863 Z" id="Fill-9"></path>
            <path d="M32.1662963,42.0654 C23.3164815,42.0654 15.6825926,36.0334 13.5994444,27.3988 C13.1418519,25.4969 14.3059259,23.5807 16.205,23.1205 L46.4903704,15.7742 C47.3964815,15.5519 48.3609259,15.704 49.162037,16.1954 C49.9618519,16.6855 50.5348148,17.4733 50.7564815,18.3872 C53.2337037,28.6598 46.9155556,39.039 36.6722222,41.5233 C35.1918519,41.8821 33.6764815,42.0654 32.1662963,42.0654 L32.1662963,42.0654 Z M21.8101852,29.055 C23.9283333,32.6586 27.8146296,34.9765 32.1662963,34.9765 C33.1164815,34.9765 34.0744444,34.8608 35.0103704,34.6333 C40.2707407,33.3567 43.8874074,28.7781 44.2024074,23.6223 L21.8101852,29.055 L21.8101852,29.055 Z" id="Fill-10"></path>
        </g>
    </g>
</svg>