<?xml version="1.0" encoding="UTF-8"?>
<svg width="29px" height="24px" viewBox="0 0 29 24" version="1.1" xmlns="http://www.w3.org/2000/svg" xmlns:xlink="http://www.w3.org/1999/xlink">
    <!-- Generator: Sketch 52.3 (67297) - http://www.bohemiancoding.com/sketch -->
    <title>Twitter-color</title>
    <desc>Created with Sketch.</desc>
    <g id="Page-1" stroke="none" stroke-width="1" fill="none" fill-rule="evenodd">
        <g id="Tour-Copy" transform="translate(-1022.000000, -796.000000)" fill="#00AAEC">
            <path d="M1051,798.84117 C1049.93444,799.323077 1048.78717,799.648971 1047.58373,799.794583 C1048.8127,799.04572 1049.75571,797.858288 1050.19998,796.44377 C1049.0493,797.137161 1047.77778,797.641603 1046.41944,797.912026 C1045.33686,796.734995 1043.78958,796 1042.07718,796 C1038.79368,796 1036.12978,798.712893 1036.12978,802.058505 C1036.12978,802.533478 1036.18084,802.994583 1036.28297,803.438353 C1031.33815,803.185265 1026.95504,800.775731 1024.01878,797.105959 C1023.50643,798.0039 1023.21365,799.04572 1023.21365,800.155146 C1023.21365,802.256121 1024.2639,804.110943 1025.86054,805.197833 C1024.88689,805.168364 1023.96772,804.892741 1023.16429,804.442037 L1023.16429,804.516576 C1023.16429,807.453088 1025.21541,809.902492 1027.9389,810.457205 C1027.44016,810.59935 1026.91419,810.670423 1026.37119,810.670423 C1025.9882,810.670423 1025.61372,810.63402 1025.25116,810.562947 C1026.00863,812.969014 1028.20444,814.72156 1030.80877,814.768364 C1028.77296,816.394366 1026.20608,817.36338 1023.41962,817.36338 C1022.9396,817.36338 1022.46469,817.335645 1022,817.280173 C1024.63327,818.996316 1027.76187,820 1031.12027,820 C1042.06527,820 1048.04842,810.769231 1048.04842,802.762297 C1048.04842,802.498808 1048.04332,802.23532 1048.0331,801.977031 C1049.19569,801.122427 1050.20508,800.056338 1051,798.84117" id="Twitter"></path>
        </g>
    </g>
</svg>