<?xml version="1.0" encoding="UTF-8"?>
<svg width="146px" height="66px" viewBox="0 0 146 66" version="1.1" xmlns="http://www.w3.org/2000/svg" xmlns:xlink="http://www.w3.org/1999/xlink">
    <!-- Generator: Sketch 52.3 (67297) - http://www.bohemiancoding.com/sketch -->
    <title>Icon05</title>
    <desc>Created with Sketch.</desc>
    <defs>
        <linearGradient x1="50%" y1="0%" x2="50%" y2="100%" id="linearGradient-1">
            <stop stop-color="#D63B1F" offset="0%"></stop>
            <stop stop-color="#D24419" offset="100%"></stop>
        </linearGradient>
        <filter x="-52.2%" y="-41.4%" width="204.3%" height="182.8%" filterUnits="objectBoundingBox" id="filter-2">
            <feOffset dx="0" dy="2" in="SourceAlpha" result="shadowOffsetOuter1"></feOffset>
            <feGaussianBlur stdDeviation="2" in="shadowOffsetOuter1" result="shadowBlurOuter1"></feGaussianBlur>
            <feColorMatrix values="0 0 0 0 1   0 0 0 0 0.207880435   0 0 0 0 0  0 0 0 1 0" type="matrix" in="shadowBlurOuter1" result="shadowMatrixOuter1"></feColorMatrix>
            <feMerge>
                <feMergeNode in="shadowMatrixOuter1"></feMergeNode>
                <feMergeNode in="SourceGraphic"></feMergeNode>
            </feMerge>
        </filter>
    </defs>
    <g id="Icon05" stroke="none" stroke-width="1" fill="none" fill-rule="evenodd">
        <g id="merch" transform="translate(1.000000, 19.000000)">
            <g id="Group-6">
                <text id="MERCHANT" fill="url(#linearGradient-1)" font-family="OpenSans-Regular, Open Sans" font-size="14.8" font-weight="normal">
                    <tspan x="41" y="21">MERCHANT</tspan>
                </text>
                <g id="KOMET" filter="url(#filter-2)" fill="#FFFFFE">
                    <path d="M18.1379508,22.5513158 C18.1379508,23.7326842 17.1915574,24.6900658 16.0245902,24.6900658 C14.857623,24.6900658 13.9116066,23.7326842 13.9116066,22.5513158 C13.9116066,21.3703289 14.857623,20.4129474 16.0245902,20.4129474 C17.1915574,20.4129474 18.1379508,21.3703289 18.1379508,22.5513158" id="Fill-1"></path>
                    <path d="M15.9137377,28.7618947 C15.3394918,28.7618947 14.7618525,28.6874868 14.191,28.5371447 C12.4380984,28.0750526 10.9683607,26.9490132 10.0521311,25.36775 L1.60472131,10.9440658 C1.31552459,10.4499211 1.47652459,9.81153947 1.96518033,9.51848684 C2.45459016,9.22581579 3.0842623,9.38875 3.37383607,9.88327632 L11.8231311,24.3107763 C12.4641148,25.4169737 13.4881803,26.2015 14.7098197,26.5239342 C15.9329672,26.8463684 17.204,26.6674079 18.292918,26.0213947 C19.3818361,25.375 20.1570492,24.3378684 20.4756557,23.1019342 C20.7942623,21.866 20.6174262,20.5777895 19.979082,19.4757895 L13.0941639,8.18563158 C12.795541,7.69682895 12.9456066,7.05577632 13.4286066,6.75432895 C13.9127377,6.45288158 14.5458033,6.60360526 14.8436721,7.09317105 L21.7406557,18.4035526 C23.6447541,21.6881842 22.5588525,25.9015789 19.3331967,27.8159605 C18.2789672,28.4421316 17.104459,28.7618947 15.9137377,28.7618947" id="Fill-2"></path>
                    <path d="M15.394541,17.7323553 C15.1600164,17.7323553 14.9319016,17.6110132 14.804082,17.3919868 L6.35440984,2.96448684 C6.1617377,2.63518421 6.26919672,2.20972368 6.59459016,2.01435526 C6.92036066,1.81936842 7.34077049,1.92773684 7.53381967,2.25742105 L15.9834918,16.6849211 C16.1761639,17.0146053 16.069082,17.4400658 15.7429344,17.6354342 C15.6332131,17.7010658 15.5129344,17.7323553 15.394541,17.7323553" id="Fill-3"></path>
                    <path d="M9.74031148,16.5185526 C9.38965574,16.5185526 9.04767213,16.3365395 8.85537705,16.0083816 L0.405327869,1.58088158 C0.116131148,1.08673684 0.277131148,0.448355263 0.765786885,0.155302632 C1.25444262,-0.136605263 1.88562295,0.0259473684 2.17444262,0.520092105 L10.6237377,14.9475921 C10.9136885,15.4417368 10.7523115,16.0801184 10.2636557,16.3731711 C10.0996393,16.4716184 9.91903279,16.5185526 9.74031148,16.5185526" id="Fill-4"></path>
                </g>
            </g>
        </g>
    </g>
</svg>