<?xml version="1.0" encoding="UTF-8"?>
<svg width="146px" height="66px" viewBox="0 0 146 66" version="1.1" xmlns="http://www.w3.org/2000/svg" xmlns:xlink="http://www.w3.org/1999/xlink">
    <!-- Generator: Sketch 52.3 (67297) - http://www.bohemiancoding.com/sketch -->
    <title>Icon04</title>
    <desc>Created with Sketch.</desc>
    <defs>
        <linearGradient x1="50%" y1="-44.8828125%" x2="37.3314464%" y2="97.8436597%" id="linearGradient-1">
            <stop stop-color="#98B937" offset="0%"></stop>
            <stop stop-color="#CD3123" offset="100%"></stop>
        </linearGradient>
        <filter x="-50.0%" y="-50.0%" width="200.0%" height="200.0%" filterUnits="objectBoundingBox" id="filter-2">
            <feOffset dx="0" dy="2" in="SourceAlpha" result="shadowOffsetOuter1"></feOffset>
            <feGaussianBlur stdDeviation="2" in="shadowOffsetOuter1" result="shadowBlurOuter1"></feGaussianBlur>
            <feColorMatrix values="0 0 0 0 1   0 0 0 0 0.455571338   0 0 0 0 0.455571338  0 0 0 1 0" type="matrix" in="shadowBlurOuter1" result="shadowMatrixOuter1"></feColorMatrix>
            <feMerge>
                <feMergeNode in="shadowMatrixOuter1"></feMergeNode>
                <feMergeNode in="SourceGraphic"></feMergeNode>
            </feMerge>
        </filter>
    </defs>
    <g id="Icon04" stroke="none" stroke-width="1" fill="none" fill-rule="evenodd">
        <g id="media" transform="translate(0.000000, 21.000000)">
            <g id="Group-6">
                <text id="MEDIA" fill="url(#linearGradient-1)" font-family="OpenSans-Regular, Open Sans" font-size="14.8" font-weight="normal">
                    <tspan x="46" y="18">MEDIA</tspan>
                </text>
                <g id="JUPIT" filter="url(#filter-2)" fill="#FFFFFE">
                    <path d="M12.0011429,23.6838095 C6.89257143,23.6838095 2.30171429,20.2617143 0.836952381,15.3622857 C-0.0540952381,12.3790476 0.269714286,9.22742857 1.74857143,6.48761905 C3.22742857,3.74780952 5.68533333,1.74857143 8.66819048,0.857142857 C9.75809524,0.531428571 10.8826667,0.366095238 12.0099048,0.366095238 C17.119619,0.366095238 21.7097143,3.78857143 23.1737143,8.68838095 C24.0647619,11.6712381 23.7409524,14.8228571 22.2620952,17.5626667 C20.7832381,20.3020952 18.3253333,22.3017143 15.3424762,23.1931429 C14.2521905,23.5188571 13.128381,23.6838095 12.0011429,23.6838095 L12.0011429,23.6838095 Z M12.0099048,2.44342857 C11.0841905,2.44342857 10.16,2.57942857 9.2632381,2.8472381 C6.81142857,3.57980952 4.792,5.2232381 3.57638095,7.47466667 C2.36114286,9.72609524 2.09485714,12.3158095 2.82780952,14.7672381 C4.03085714,18.7939048 7.80342857,21.6064762 12.0011429,21.6064762 C12.9268571,21.6064762 13.8514286,21.4708571 14.7474286,21.2030476 C17.1992381,20.4704762 19.2182857,18.8270476 20.4342857,16.575619 C21.6495238,14.3241905 21.9158095,11.7344762 21.1828571,9.28304762 C19.9798095,5.256 16.208,2.44342857 12.0099048,2.44342857 L12.0099048,2.44342857 Z" id="Fill-1"></path>
                    <path d="M1.98933333,13.4064762 C1.54247619,13.4064762 1.12914286,13.1154286 0.994666667,12.6647619 C0.83047619,12.1154286 1.14285714,11.536381 1.69257143,11.3725714 L10.6495238,8.69638095 C11.1984762,8.53066667 11.7782857,8.84380952 11.9424762,9.39428571 C12.1066667,9.94361905 11.7942857,10.5226667 11.2445714,10.6864762 L2.28761905,13.3626667 C2.18819048,13.392381 2.088,13.4064762 1.98933333,13.4064762" id="Fill-2"></path>
                    <path d="M13.4586667,17.9295238 C13.0114286,17.9295238 12.5984762,17.6384762 12.463619,17.1878095 C12.2994286,16.6380952 12.6118095,16.0594286 13.1615238,15.8952381 L22.1180952,13.2194286 C22.6670476,13.0537143 23.2464762,13.3668571 23.4110476,13.9173333 C23.5752381,14.4666667 23.2628571,15.0453333 22.7131429,15.2095238 L13.7565714,17.8853333 C13.6571429,17.9150476 13.5573333,17.9295238 13.4586667,17.9295238" id="Fill-3"></path>
                    <path d="M8.32685714,19.4628571 C7.87961905,19.4628571 7.46666667,19.1718095 7.33219048,18.7207619 C7.16761905,18.1714286 7.48,17.5927619 8.02971429,17.4285714 L9.58590476,16.9638095 C10.1348571,16.7984762 10.7142857,17.1112381 10.8788571,17.6617143 C11.0430476,18.2110476 10.7306667,18.7900952 10.1809524,18.9539048 L8.62514286,19.4186667 C8.52533333,19.448381 8.42552381,19.4628571 8.32685714,19.4628571" id="Fill-4"></path>
                    <path d="M12.2548571,6.11619048 C11.808,6.11619048 11.3946667,5.8247619 11.2601905,5.37409524 C11.095619,4.8247619 11.408381,4.24609524 11.9580952,4.08190476 L13.5139048,3.61714286 C14.0628571,3.45142857 14.6426667,3.76457143 14.8068571,4.31504762 C14.9710476,4.86438095 14.6586667,5.44304762 14.1089524,5.6072381 L12.5531429,6.072 C12.4537143,6.10171429 12.3535238,6.11619048 12.2548571,6.11619048" id="Fill-5"></path>
                </g>
            </g>
        </g>
    </g>
</svg>